<svg width="618" height="180" xmlns="http://www.w3.org/2000/svg"><path d="M616.72 95.758c0-1.665-.708-3.088-1.308-4.396-.708-1.065-2.141-2.14-2.141-3.804l.958-2.73c0-2.14-1.666-4.396-2.382-6.294l-2.499-7.484c-1.066-2.498-2.373-5.112-3.681-7.252-2.14-3.33-5.947-3.805-7.604-5.112l-1.666-3.446c-4.165-2.49-8.679-5.229-13.318-7.126-1.308-.359-3.449-.717-4.873-1.308-.95-.358-2.732-1.065-2.732-1.065-.949-.242-1.307-.716-2.14-1.307-1.666-1.307-3.448-2.74-6.538-2.74-1.666 0-2.732.6-4.165.95-.95.241-2.015.241-2.49.241l-3.09-.59c-1.075-.6-1.075-.6-2.14-.6-2.025 0-5.473.358-7.256 1.307-.716.358-1.782 2.023-2.373 2.256 0 0-3.099-.591-4.523-.591-1.782.242-5.822.949-5.822.949-4.998 2.614-10.936 6.893-15.575 10.456-1.191.95-.358 2.856-1.308 3.689-.95.832-3.681.474-4.397 1.065-3.449 3.33-6.539 8.317-8.321 12.354 0 0-1.899 8.442-2.257 9.033-.717 1.074-1.55 2.73-1.666 3.447 0 0-1.782 3.088-2.732 4.512-1.307 2.74-1.666 4.879-2.024 5.944l.242 5.112c0 1.782.95 2.73.95 2.73 0 1.782-1.076 3.33-1.308 4.038-.359 1.432-.717 2.498-.717 4.163 0 1.307 3.09 16.75 3.09 16.75 1.666 5.228 4.398 9.033 6.897 13.07 1.666 2.856 3.331 5.587 4.756 8.317.358.716.949 2.023 1.065 3.688.6 2.373.959 4.754 2.383 6.536 4.04 3.68 8.32 7.242 14.742 9.623l4.04.591c.949 0 4.514.117 4.872.475 0 0 .716 1.665 1.782 2.614 1.783 1.665 4.756 3.688 4.756 3.688 4.756.95 10.578 1.066 12.36 1.066 1.308 0 2.5-.359 4.165-.708 1.066-.716 2.499-.6 3.448-.716 1.424-.242 2.974-1.549 6.18.358.591.358 1.424.358 2.024.358 3.798 0 10.336-3.688 22.23-9.982.35 0 1.308-1.074 1.425-1.074l2.731-.949c2.5-1.065 6.422-2.14 8.68-5.586 5.113-8.675 6.537-11.405 6.537-19.131 0-3.447-.949-5.82-2.498-7.843-2.849-3.446-7.488-2.846-11.644-2.846h-1.308c-.6 0-4.397 0-5.472 2.372 0 0-3.806 4.52-6.18 7.135-2.14 2.73-2.14 3.68-3.806 5.577-.95.958-2.849 2.024-3.682 3.098-.716 1.423-3.09 3.438-3.09 3.438-1.666 1.307-4.048.716-6.18.957-1.074.233-2.14.233-3.099.35-.707.358-2.731 1.074-3.68 1.432-.95.35-3.09 0-3.333 0-.349 0-1.065-.242-2.015-.958-1.782-1.307-2.74-1.656-4.756-1.656-2.14 0-5.589-.716-5.589-.716-1.065-1.307-2.498-2.73-4.397-4.396-1.424-1.307-3.923-.474-5.822-1.065-5.472-2.498-7.138-8.8-7.138-8.8s-.708-2.731-.708-3.68c-.242-1.307-1.075-4.754-1.075-4.754-.716-2.023-1.307-3.088-1.307-6.177 0 0 4.397-2.497 6.422-2.497.358 0 1.307.241 2.14.358 1.066.232 2.14.716 3.448.716 1.308 0 2.49-.716 3.682-1.074.716-.233 2.024-.591 2.024-.591 1.307 0 2.49 0 3.448.59.708.359 1.782 1.075 3.09 1.075 1.308 0 2.14-.716 4.514-1.665 1.308-1.075 3.807-1.665 4.514-1.665 0 0 7.613.59 10.703 1.065 6.771.716 9.987 1.074 11.294 1.074 1.066 0 2.141-.358 5.115-1.074 1.657-.591 4.039-1.065 4.039-1.065 1.308 0 3.323.358 4.04.59 1.423.717 2.856 1.075 3.69 1.075 5.463 0 13.667-4.754 14.384-11.647.232-2.14 2.131-4.28 3.09-7.126.707-2.498-.126-3.922-.126-4.996zm-119.23-11.53c0-1.782-.358-3.438-1.308-5.22-.241-1.307-.716-2.498-.716-3.455-.233-.708-.233-2.015-.233-3.089.233-2.363.233-5.103-.242-7.842-.95-2.364-2.14-4.154-3.323-5.47-.6-.35-1.075-.95-1.075-1.298-.59-.716-1.065-1.424-1.665-2.373-2.49-4.87-5.822-10.349-9.503-10.572-1.666 0-2.857.698-3.807 1.307l-2.14-.367c-1.783-1.057-2.732-1.773-3.807-1.773-2.015 0-9.028 1.773-11.643 2.722l-4.049 2.864c-.59.35-.95 2.489-.95 2.489s-1.665-.474-2.023-.474c-1.657.349-5.58.349-7.13 2.372 0 0-1.782 2.014-2.499 2.856-3.09 3.088-3.68 4.163-5.938 4.046-1.433 0-1.782-.25-2.74-4.762-.708-4.387-2.132-11.639-11.053-11.755-2.015-.25-4.156-.25-5.23-.25l-3.682 2.032c-1.307 0-2.857-3.456-5.23-2.382l-14.151.958c-2.141-.358-4.515-1.316-6.064-1.2-2.14.117-3.09 1.54-3.923 1.666-5.822 1.423-9.503 7.251-9.628 11.763-.233 3.796 2.74 7.493 4.523 9.508 1.424 1.665 6.413 6.535 12.002 6.777 1.665 0 3.09-.726 5.472-1.782.708-.367 1.782-1.074 1.782-1.074s6.422 3.088 9.27 5.47c2.14 4.154 1.783 9.033 1.666 14.135-.242 1.657-.242 3.447-.242 5.47l-.232 11.755v11.414l-.6 4.163c-.592 1.773-.708 4.396-.592 6.526 0 1.665.242 4.405.717 6.768.233.725.591 2.39.591 2.74 0 0-1.308 8.307-2.14 11.047-.708 1.432-2.849 2.498-4.757 3.456-.707.349-1.782 1.065-1.782 1.065.242-.233-2.848-.958-2.848-.958-2.14-.59-3.332-.707-4.048-.707-2.374-.233-10.578 1.307-10.936 10.572 0 3.33.716 5.828 2.382 7.252 0 0 3.798 5.47 6.538 5.47 1.308 0 2.374-.6 5.106-1.665.958-.6 1.665.223 1.665.223s2.025-.707 2.5-.59c1.423 1.074 3.09 1.316 4.397 1.316 1.308 0 3.09.349 4.872-.242.717-.233 3.449-1.54 3.449-1.54 2.615 1.54 4.872 2.847 6.18 2.972h12.369c1.657 0 3.322 0 5.58-1.074.958-.358 1.074-1.549 1.433-1.665l3.09 1.307a12.78 12.78 0 0 0 4.039 1.074c1.666 0 3.09-.6 4.398-.949l2.731-.358c.6-.25 2.024-.725 3.1-.6h2.731c5.463-.358 9.512-8.325 9.628-11.638 0-2.74-1.424-5.47-3.332-7.251-1.424-2.014-3.797-3.089-5.938-3.33-1.433 0-2.74.358-4.048.716-.708.232-3.323.6-3.323.6-2.14-.251-8.679-.251-11.652-1.075-3.332-1.307-7.255-4.753-9.27-6.768-1.075-2.39-.359-8.2 0-11.414 0-1.307.358-2.14.358-3.33l.233-3.438c.358-4.405.59-12.596.59-12.596s0-2.498-.232-3.089c0-.716-.358-1.423-.358-1.781 0-.716-1.066-5.828.95-7.126 1.307-1.075.949-2.856 2.382-4.047 4.514-3.33 6.412-5.228 8.553-9.982.958-2.014 2.14-5.102 2.14-5.102 1.075-1.308 5.948-4.396 9.038-7.136 1.424-2.014 2.024-2.14 3.448-3.088 1.666-1.432 3.681-1.665 3.681-1.665l.717 1.781c0 .958-.359 1.782-.717 2.498-1.307 3.089-1.657 5.103-1.657 6.768-.242 4.163 6.18 12.596 9.861 14.745 1.666.94 3.449 1.414 5.115 1.647l.716.367c1.308 1.074 2.374 2.14 4.156 2.14 1.424 0 3.332-.95 4.514-2.507 1.308-1.424 2.74 0 3.448-1.424 0 0 1.666-2.13 3.332-2.846 1.666-.95 2.848-1.791 4.156-3.447 2.14-2.13 2.857-5.22 2.857-7.252zM380.285 162.3c0-11.047-8.912-11.763-14.384-12.121-1.666-.233-3.448-.233-4.04-.591-1.782-.716-3.331-2.14-3.331-3.447 0 0 .59-2.73.949-4.163.95-3.68.358-5.46.358-6.535 0-1.423.591-3.089-.358-5.461-.233-.716-.358-1.423-.591-1.781 0 0 .358-1.424.591-2.498.358-1.066.6-2.14.6-3.33 0-2.015-.716-4.038-1.433-5.82-.233-.59-.35-1.065-.591-1.423l-.233-2.856c.233-.707.233-.707.233-2.14 0-1.065-.233-3.679.358-4.753.358-.591.591-1.307.95-1.782.949-1.423 2.024-3.446 2.024-5.102 0 0 1.307-18.899 1.307-20.555v-1.307c.233-3.33.233-7.135-.241-9.866v.716c0-1.79-.717-3.097-1.308-4.046l-.233-2.14c-.242-3.68-.242-7.842-3.332-9.623-3.448-2.14-9.512-2.73-10.936-2.73-1.075 0-2.14.24-3.448.357-.95 0-1.666-.242-2.14-.242 0 0-1.425-.358-2.374-.707-2.383-1.307-3.807-2.023-5.23-2.023-1.434 0-1.783 1.549-3.09 2.256-.717.242-3.333-.59-3.449-.59l-3.09-.717c-2.024-.59-3.099-.949-4.165-.949-5.114 0-16.883 12.712-16.883 18.299 0 2.14.95 4.163 2.74 5.944 3.44 3.447 9.03 5.103 11.77 5.103 2.015 0 4.04-.949 4.514-.949l4.514 2.614 1.666.358c1.075.358 1.666.591 2.732.591.6.242 2.382.358 2.74.6l1.308 2.489s.233 2.023-2.382 3.446l-1.308.716-.591 1.424c-.717 3.088.707 5.828 1.782 7.61.358.59 1.066 2.372 1.066 2.73l-.95 4.154c-.59 2.14-1.065 4.52-.949 6.893l1.424 3.688c.358.708 1.075 2.14 1.075 2.14s-2.857 10.215-5.114 14.136c-2.024 3.688-4.756 6.893-7.488 10.34-1.666 2.014-3.448 4.154-5.114 6.41-1.308 2.023-4.756 6.777-7.13 6.777h-.716c-6.771 0-9.037-.358-9.037-.358-3.798-1.782-6.413-4.87-9.503-8.908l-.242-.242c-1.782-2.372-1.424-9.982-1.307-13.428 0-1.307.241-2.847.358-4.512.591-4.396.716-6.894.233-8.675v-.358c-.708-1.782-1.657-2.847-2.374-3.68-.59-.59-.59-.59-.59-1.307 0-.949 2.014-9.033 2.014-9.033.242 0 2.025-2.372 2.141-2.497l.95-2.847c.6-2.023-1.066-3.689-2.49-5.586-.717-.95-1.308-2.015-1.666-2.73l-.359-1.424v-4.396c0-3.33.591-4.405 1.308-5.944.95-1.666 2.024-3.689 2.024-7.485 0-2.855-.6-7.842-2.14-9.981-.717-1.075-1.434-1.308-2.383-2.14-4.756-5.228-10.336-8.559-16.758-8.559-1.074 0-2.14.359-4.164.717-.708.232-1.54 1.781-2.016 1.781L258.2 48.23c-2.5-.707-3.807-1.065-4.873-1.065-1.666 0-11.769 3.679-11.769 9.507 0 2.014-.241 4.87-.59 7.126-.243 1.782-.243 2.73-.243 3.33 0 2.373 1.308 4.87 3.807 7.485 2.499 2.73 7.246 5.819 10.694 5.819 1.782 0 2.857-.708 3.69-1.307.95-.591 3.323 4.87 3.323 16.159l.358 5.828c.242 4.154.6 7.6.6 7.6-.241.242-.358 1.307-.6 1.424-.358.958-.59 1.781-.59 3.33v21.387c0 2.381 1.423 3.689 1.423 5.112l.95 2.73c.358 1.666 1.074 4.163 1.074 4.163 0 .233 12.719 29.82 25.679 29.82 1.066 0 2.49-.241 3.68-.357.592-.233 1.425-1.666 1.783-1.666 0 0 1.308 1.782 2.024 2.024 1.666.59 3.09 1.065 4.398 1.065 1.424 0 2.848-.59 4.514-1.065.717-.242 1.666-.717 2.024-.717l2.374.6c1.433.358 2.74.708 3.806.708 1.666 0 2.5 0 3.807-.591l.591-.591c1.424-1.074 3.332-2.14 5.114-3.33 2.14-1.424 5.23-3.805 5.23-3.805 1.308-.95 4.04-2.14 4.873-3.322.591-.716.95-.358.95-.358s.716.95.949 1.782c.358.949.6 1.665.958 2.14l.591.948.717.359c1.066.59 4.398 1.065 5.463 1.781 4.514 2.372 5.947 2.847 6.897 2.847 1.066 0 2.499-.35 2.848-.591l3.69 1.307c3.323 1.074 4.514 1.665 5.589 1.665 3.09 0 3.798-1.549 6.888-5.344l2.024-.242s.716-1.423 1.307-1.423c2.141 0 3.449-1.075 4.165-2.024 1.066-1.54 1.899-3.446 1.899-6.177zM114.559 148.72a16.257 16.257 0 0 1-.551-.322c-1.783-.958-2.383.466-3.923-.358-2.025-.958-2.383-.35-3.449-.125-2.615.483-1.19.949-2.857 1.907-1.899 1.074-2.14 3.795-2.14 3.795s-3.565 2.149-3.798-1.665l-1.075-2.838c-.59-2.032-2.731-3.804-1.666-4.52l2.141-4.038c.242-1.424 1.075-2.498.716-4.047-.716-1.298-1.074-2.855-1.307-3.446 0 0-.833-2.964-.475-3.554.95-1.424 1.782-1.424 1.782-2.865-.358-2.847-.716-4.861.359-7.842.95-2.006-.95-5.452-.95-5.452.591-3.33 2.016-2.856 1.783-8.21-.242-2.13 1.066-4.163-.6-6.052 0 0-.95-1.074-.592-1.432L99.15 95.4c.349-1.423.233-3.089-.484-4.879l-1.066-1.423.117-2.131c.716-2.014.241-3.68.241-5.228-.474-4.038-5.347-12.945-5.347-12.945-1.307-1.433-1.782-3.214-3.09-4.172-.958-.466-2.14-.582-2.266-.94-.349-.117-.474-1.558-.474-1.907-.95-1.665-2.015-2.847-4.04-3.68 0 0-2.731-1.54-4.039-1.665-.95-.116-2.024-.367-2.74-.716l-1.308-1.074c-.708-1.298-2.016-1.782-3.682-2.13 0 0-2.024-.359-3.806-.234-1.066 0-2.14-.358-3.09-.125-.358.242-.591.242-.708.242l-2.266-.842c-1.898-1.056-2.731-1.19-4.155-1.056-2.383 0-3.216 1.781-4.756 3.088-.359.35-3.565.35-4.04.233-.95-.116-1.433-.367-2.74-.233-1.308 0-2.257.233-5.106 1.531-1.074.367-3.331.367-3.331.367s-1.666.233-2.374.108c-1.433-.34-3.923-.824-4.998-.824-2.015 0-2.731 2.605-5.705 4.038-.717.6-2.024.367-2.974.958-.358.232-1.065 2.256-1.424 2.497-3.09 2.256-3.806 5.345-6.421 4.987-.475 0-2.732 1.423-3.09 1.772-2.141 1.916-3.565 4.289-3.565 4.289-1.424 1.888-2.374 5.102-2.374 6.651 0 .242-.125 1.298-.125 1.665 0 5.112.125 11.29 1.782 15.094 1.192 3.089 7.613 7.842 10.936 7.717.959 0 1.191-.833 2.14-.833.96 0 1.667-.707 2.141.475 0 0 .95.358 1.433.483 1.425.35 2.732.708 3.798.582 2.857-.116 7.73-5.819 7.971-7.833.475-2.972.95-7.842.824-9.266 0-2.148-1.182-3.572-1.898-4.28-.717-.84-1.066-.84-1.192-2.139 0-1.665 1.433-2.372 1.55-2.614l4.872-1.674c2.024 0 6.306 3.089 7.73 1.441 0 0 1.307-.367 1.782 0 2.015 1.424 1.308 2.364 3.681 2.256 1.308 0 3.923-.832 5.947-2.023l2.14.117c1.309.707.476 1.432 1.9 1.781 1.424.35 3.448.591 4.872.833l2.74-.6c3.798 1.665 3.682 7.019 4.04 9.99 0 1.424-1.308 8.192-1.666 11.397l-2.024.958c-1.308 1.423-3.565-.833-4.398-.833-1.782 0-2.373.126-7.129 3.796l-2.499.958c-1.782.707-2.015.824-2.973 2.13-.35.243-2.49-1.306-2.49-1.306-2.5-1.298-4.873 2.032-6.306 2.032-4.872 0-4.756-1.558-7.487 1.781 0 0-5.939.35-6.655.582-2.383.958-2.857-.232-5.947 1.2-2.974 1.423-2.374 3.554-3.09 3.921.242 0-1.899-.832-1.899-.832-.242 0-1.075.241-1.666.241-1.782.224-5.114 3.43-5.114 3.43C5.947 123.447 0 138.173 0 140.797c0 1.423.6 2.972 1.191 4.395.591 1.065-.716 2.005-.474 2.972 0 1.066.232 2.49.232 3.787.242 1.665.242 3.089.359 4.405 0 0 1.782 5.819 4.397 7.251l1.666.95c.6.357 2.383 1.664 2.383 1.664 1.657 3.089 3.797 5.587 5.938 6.527 1.782.725 3.09-.117 4.872.125 1.666.35 3.807 2.381 3.807 2.381.6.35 1.424.95 2.14 1.424 3.332 2.13 5.23 3.321 7.13 3.321 2.024 0 3.448-.94 5.114-1.773.242-.241 3.806-1.316 4.04-1.316l12.96-.6c.358 0 1.074 0 2.024.251.949.233 2.015.35 2.848.35 2.499 0 4.164-.95 5.114-1.308l1.666-1.307c.707-.949 2.14-2.13 2.732-2.372l1.665-.367c1.783-.35 4.156-.707 5.948-2.48v.233c1.424-1.316 2.373-2.74 2.731-3.447 0 0 3.09.707 4.514 1.665l1.783 2.131c.716 1.074 1.666 2.507 2.857 3.456 3.448 2.14 5.589 3.32 8.32 3.32 1.066 0 5.59-.232 6.18-.348l2.732-.716c1.666.716 1.783 1.307 2.857 1.307 1.565 0 3.638-1.652 4.763-2.554 1.092-.146 2.345-.395 3.316-.786.717-.349 2.14-.707 2.499-.949l2.499 1.075c.707 1.423 2.373 2.014 3.323 2.014 1.075-.233 1.433.242 2.74-.35.592-.24 2.849-.957 3.449-.357 2.731 1.423 4.156 2.372 5.821 2.372 1.066 0 2.141-.59 4.398-1.307.717-.358 2.14-.949 2.499-1.065 0 0 1.066.59 3.09.707 6.413.716 8.553.958 9.27.958 1.066 0 2.14-.242 3.806-.716.359-.242 1.783-.591 1.783-.591s4.156.707 5.822.949c3.806.949 3.331 1.307 4.039 1.307.958 0 2.14-.6 4.881-1.665 1.066-.358 4.873-.95 4.873-.95.949.359 2.015.708 3.322.708 1.666 0 3.1-.949 4.407-2.372.233-.242.591-.591.708-.95l1.307.592c.717 1.423 2.5 2.023 3.449 2.023 1.065-.242 2.498.233 3.806-.358 0 0 1.666-.95 2.14-.358 2.732 1.423 4.157 2.38 5.822 2.38 1.066 0 2.141-.599 4.398-1.306.717-.358 2.499-.958 2.857-1.074 0 0 4.156.59 6.18.716 6.422.707 8.554.949 9.27.949 1.075 0 2.14-.242 3.807-.716.358-.233 1.782-.591 1.782-.591s4.156.716 5.822.949c3.806.949 3.332 1.307 4.04 1.307.958 0 2.14-.591 4.88-1.665 1.066-.359 4.873-.95 4.873-.95.95.359 2.015.717 3.323.717 1.666 0 3.099-.95 4.406-2.382 2.849-2.372 4.99-7.367 4.99-9.74 0-4.037-1.067-6.893-3.333-9.033-3.323-3.321-3.797-2.14-6.413-3.446l-5.83.241c-1.424 0-5.23.717-7.846 1.424 0 0-2.14.949-2.848 1.307-.359.242-2.732-.591-2.732-.591-2.024-.716-1.791-1.307-2.857-1.307h-3.332l-2.49-4.396c-1.075-4.395.35-6.777.233-8.2l.716-5.47c1.066-3.68 1.666-5.228 1.666-6.41 0-2.14-.716-3.688-1.433-4.395-.349-1.075-.95-2.024.359-7.494.358-1.656-.233-4.87-.233-4.87 0-.358-.6-2.014-.717-2.372-.591-1.074-1.307-3.089-1.424-3.688l1.066-2.847c.95-2.73 1.666-4.163 1.666-5.587 0-2.023-.717-3.33-1.666-4.753-.708-1.782-1.666-4.038-1.666-8.908-.233-.949.242-6.777 0-12.005l.242-7.6s.591-1.308 1.066-2.024c.6-1.307 1.307-2.73 1.666-4.512.358-2.023.241-4.163 0-5.944-.233-.95-.233-2.498-.233-2.498.233-1.423.95-3.321 1.782-4.87 1.666-4.754 2.374-6.41 2.374-7.842 0-1.424-.95-3.089-2.732-5.587-.358-.707-.95-1.781-1.075-2.13 0 0-.708-3.805-1.308-6.186-.949-3.447-1.782-6.885-2.131-9.982l-.242-1.066-.717-.716c-.59-.349-3.68-3.68-6.538-3.68-2.14.233-2.732 0-4.514 1.666h-2.373s-.959-1.665-3.332-1.665c-1.783 0-4.165-.358-4.873.358l-4.397.358c-3.09-1.79-3.332-2.023-4.882-2.023-1.065 0-1.782.358-2.49.59l-3.09-1.423c-2.74-1.665-4.048-2.14-5.23-2.14-7.488.242-12.96 13.429-12.718 19.248 0 8.559 5.105 11.29 9.028 13.67.6 0 3.09-.358 3.564 0 .359.233.833 2.373 1.192 2.964 1.307 1.432 2.499.958 3.69 1.074 0 0 .116-.475 1.424-.833 0 0 3.448 2.14 5.23 2.14 1.783 0 2.016-1.423 3.449-2.498l1.066 2.14c.358 1.307.6 2.73 1.074 4.163 0 0 1.424 3.68 2.732 5.46l.95 2.382c-.592 1.065-2.258 2.13-2.258 3.563 0 .949 1.192 2.372 1.425 3.321.241 1.075.241 2.74.241 3.447l-.949 2.381c-.958 1.307-1.433 2.73-1.433 4.154 0 2.856 1.782 4.754 2.857 5.945.95 1.065 1.308 1.423 1.308 2.372 0 0-.6 1.665-.95 2.498-.358 1.307-.958 2.497-.958 3.805-.708 3.088-.233 6.41.358 8.674 0 .591.95 4.396.95 4.754l-.35 8.317c0 1.656-.242 3.088-.242 4.512a27.267 27.267 0 0 0-.358 4.512c-.358 2.498-.707 5.112-.707 7.61l2.373 2.255c.358.717-1.424 2.973-1.424 3.33 0 .592.591 1.782 0 2.731a24.294 24.294 0 0 0-.95 3.805c0 2.13-.241 4.396-.358 6.41-.241 1.432-.358 2.856-.358 3.805 0 .949-1.308 2.023-1.308 2.855-.241 1.307-.358 3.68-.949 4.154l-3.09-1.065c-3.09-1.074-3.806-.358-4.872-.358-.6 0-2.383-.716-3.332-.6-2.499.358-4.398.958-5.114.958 0 0-.708-.242-1.424-.6-2.141-.358-3.09-.358-4.165-.358-3.44 0-5.938 1.79-7.604 4.163-.358 0-.717 0-1.066.242 0 0-2.14.949-2.857 1.307-.358.232-2.732-.6-2.732-.6-2.024-.707-1.782-1.307-2.857-1.307h-3.323l-1.433-4.396c-1.308-4.395-.708-6.768-.95-8.2l.717-5.461c1.066-3.689 1.666-5.228 1.666-6.419 0-2.14-.716-3.68-1.308-4.396-.6-1.065-1.074-2.023.233-7.484.359-1.665-.233-4.87-.233-4.87 0-.358-.6-2.023-.716-2.381-.591-1.066-1.308-3.089-1.424-3.68l1.307-2.855c.708-2.731 1.425-4.154 1.425-5.587 0-2.014-.717-3.321-1.425-4.753-.958-1.782-1.782-4.038-1.782-8.908 0-.949.233-6.768.233-11.996v-7.61s.591-1.307 1.075-2.023c.59-1.307 1.307-2.73 1.657-4.512.358-2.023.242-4.154 0-5.944-.233-.95-.233-2.49-.233-2.49.233-1.432.95-3.33 1.782-4.87 1.666-4.753 2.374-6.418 2.374-7.842 0-1.432-.95-3.097-2.49-5.586-.6-.716-1.075-1.781-1.308-2.14 0 0-.716-3.804-1.308-6.177-.958-3.446-1.782-6.893-2.14-9.982l-.242-1.074-.708-.707c-.6-.358-3.69-3.688-6.538-3.688-2.14.241-2.74 0-4.523 1.665h-2.373s-.95-1.665-3.332-1.665c-1.782 0-4.156-.359-4.872.358l-4.398.358c-3.09-1.782-4.514-2.023-6.18-2.023-1.075 0-2.024.358-2.74.6l-3.324-1.433c-2.857-1.656-4.164-2.14-5.472-2.14-7.962.242-16.167 13.429-16.05 19.257.242 8.55 5.472 11.28 9.637 13.661.591 0 3.206 1.19 3.798 1.54.358.242.358.958.716 1.549 1.308 1.423 2.374 1.549 4.756 1.549 2.015 0 2.848-1.79 4.156-2.14 0 0 3.215 2.847 5.23 2.847 1.783 0 3.09-1.424 4.523-2.498l1.066 2.14c.359 1.307.6 2.74 1.075 4.163 0 0 1.424 3.679 2.732 5.46l.95 2.382c-.592 1.065-2.141 2.14-2.141 3.563 0 .949 1.074 2.381 1.307 3.33.242 1.066.359 2.73.242 3.447l-.95 2.372c-.958 1.307-1.432 2.73-1.432 4.163.241 2.847 1.782 4.745 2.857 5.936.95 1.074 1.307 1.432 1.307 2.38 0 0-.6 1.657-.949 2.49-.358 1.307-.716 2.497-.958 3.804-.708 3.089-.233 6.42.6 8.675 0 .591.707 4.396.707 4.754l-.349 8.317c0 1.665-.242 3.088-.242 4.512a27.378 27.378 0 0 0-.358 4.52c-.358 2.49-.708 5.104-.708 7.601l2.016 2.256c.358.716-1.183 2.972-1.183 3.33 0 .591.591 1.782 0 2.731-.358 1.074-.716 2.381-.716 3.805-.242 2.14-.358 4.395-.591 6.419-.242 1.423-.359 2.846-.242 3.795a12.33 12.33 0 0 0-.358 2.856c-.233 1.307-1.424 3.68-2.016 4.154l-3.331-1.065c-2.5-1.066-3.09-.358-4.04-.358-.6 0-2.024-.708-2.74-.591-2.016.358-1.657.949-2.016.949 0 0-.716-.242-1.433-.591a21.932 21.932 0 0 0-1.58-.27zm466.262-71.377c2.974 1.423 3.332 5.345 3.332 8.2 0 2.847-1.666 4.154-3.09 6.894-1.433 2.73-4.048 1.54-5.472 2.256-5.114 2.14-10.936 3.205-13.193 3.205-1.433 0-8.32-2.847-9.87-2.847-1.783 0-4.156 1.423-5.938 1.423-1.433 0-4.523-2.14-6.19-2.14-1.782 0-6.412 1.308-8.195 1.308-4.164 0-5.114-1.424-5.114-4.396s2.732-9.624 7.846-11.047c1.424-.6 4.514.59 6.422-.958.708-.949 1.308-4.512 3.323-5.461 4.523-2.856 14.384-5.586 16.05-5.586 2.024 0 4.756 2.14 6.771 3.68 1.433.357 3.332-.234 4.523.357 2.499 1.307 6.297 3.921 8.795 5.112zM75.486 128.909l-.95 8.916c0 1.773-4.397 2.73-6.422 4.512-1.424.717-4.747 3.089-4.747 3.089-.958.6-2.498 1.656-6.78 8.916-.242.591-1.424 1.424-1.782 1.424-.242 0-1.075-.233-1.782-.358-1.424-.242-4.165-.367-5.115-.367-1.065 0-3.09.609-6.18 1.441-.949.224-1.549 1.424-2.14 1.665-.233-.367-3.207-.958-3.565-1.19-2.732-1.79-1.424-1.79-3.69-1.79l-3.681-.825c-2.024-.948-2.374-2.972-4.281-5.353-.591-.59.116-2.605-.591-3.098-.95-.698.707-1.781.707-3.088 0 0-1.066-1.89 1.308-4.261 1.666-2.39 2.024-3.456 2.024-3.456l2.857.125s1.782-1.557 2.374-1.79l4.639-1.656c1.308-.958 2.015-1.666 2.732-2.14.358 0 1.307-.367 3.332-.367 1.424 0 2.848-1.647 4.514-1.424 0 0 5.114.6 7.254.6 2.132 0 8.554-1.656 14.143-3.804.591-.35 1.782-.591 2.14-.708.592.242 1.066-.367 1.066-.232.959.232 1.433-.242 1.666.349 0 0 .717 2.13.95 4.87" fill="#FFF" fill-rule="evenodd"/></svg>