<?xml version="1.0" encoding="UTF-8"?>
<svg viewBox="0 0 800 146" class="logo-svg" version="1.1" xmlns="http://www.w3.org/2000/svg" xmlns:xlink="http://www.w3.org/1999/xlink" width="250" height="45">
<title>Marie Claire</title>
    <g stroke="none" stroke-width="1" fill="currentColor">
        <g fill="currentColor">
            <path id="Fill-1" d="M288 55.741 288 141.991 319.307 141.978 319.241 39 288 55.741"/>
            <path d="M320.041081,12.3822159 C318.853081,9.01721591 316.343081,5.78621591 313.190081,3.56321591 C306.067081,-0.734784089 295.834081,0.496215911 290.350081,6.32721591 C286.203081,10.2042159 284.217081,16.6942159 285.285081,22.9002159 C286.126081,28.7022159 290.875081,33.3572159 294.903081,35.2232159 C301.543081,37.8812159 311.418081,37.3392159 317.440081,29.9042159 C320.851081,25.8162159 321.950081,18.4392159 320.041081,12.3672159 L320.041081,12.3822159" id="Fill-2"/>
            <path d="M132.127,55.755 C130.534,49.328 125.076,43.786 118.852,42.314 C104.46,38.776 91.362,44.263 83.793,56.993 L83.082,58.178 L82.58,56.897 C78.808,47.478 72.844,42.26 64.852,41.401 C51.549,39.334 41.283,44.399 31.494,57.837 L30.268,59.527 L30.268,40 C28.429,40.939 0,55.414 0,55.414 L0,142.108 L30.268,142.108 L30.33,77.202 C30.33,72.134 35.358,67.682 40.392,67.847 C45.109,68 49.85,72.452 49.85,77.202 C49.85,77.202 49.865,140.854 49.865,142.036 L81.451,142.036 C81.451,140.854 81.396,77.202 81.396,77.202 C81.45,72.075 86.862,67.618 92.023,67.847 C96.743,68.056 101.251,72.513 101.251,77.202 L101.251,142.01 L133.014,142.01 L132.96,66.92 C132.96,63.827 132.96,59.347 132.127,55.755" id="Fill-3"/>
            <path d="M220.578818,129.854047 C217.868818,129.593047 217.122818,123.846047 217.122818,123.846047 C217.122818,123.792047 211.362818,89.6140468 211.362818,89.6140468 C211.362818,89.6570468 210.000818,82.9710468 210.000818,82.9710468 C208.600818,75.8610468 207.142818,68.4960468 204.433818,61.7290468 C195.582818,41.2110468 170.185818,37.8360468 151.481818,43.3780468 C148.482818,44.2890468 145.640818,45.8270468 145.640818,45.8270468 L145.640818,58.5450468 C153.331818,55.2080468 160.835818,55.0040468 166.907818,57.8900468 C174.804818,61.7140468 177.031818,71.4480468 177.441818,75.4770468 C177.441818,75.5460468 178.134818,79.9820468 178.134818,79.9820468 C169.011818,81.3580468 157.676818,83.6110468 149.315818,89.5050468 C139.974818,96.1640468 135.058818,106.774047 136.149818,117.856047 C136.489818,129.645047 145.612818,139.082047 154.422818,142.351047 C166.131818,146.488047 182.201818,145.820047 191.759818,134.819047 C191.814818,134.764047 192.929818,133.518047 192.929818,133.518047 L195.635818,136.153047 C202.608818,143.464047 210.247818,143.234047 219.098818,142.974047 L223.793818,142.880047 L223.790818,130.336047 C223.790818,130.336047 220.660818,129.885047 220.578818,129.854047 L220.578818,129.854047 Z M180.443818,95.0710468 L186.160818,122.791047 C171.434818,139.771047 147.178818,109.970047 180.443818,95.0710468 L180.443818,95.0710468 Z" id="Fill-4"/>
            <path d="M280.47,39.096 C266.664,39.096 259.132,55.109 259.052,55.287 L257.745,58.365 L257.745,56.401 L257.733,39 L227,55.733 L227.028,142.234 L257.867,142.223 L257.867,86.858 L257.99,84.791 C258.262,80.228 258.52,75.517 260.659,71.542 C265.274,62.624 275.964,62.814 283.438,63.78 L288.856,40.539 C288.856,40.539 285.452,39.109 280.47,39.096" id="Fill-5"/>
            <path d="M720.856,40.54 C720.856,40.54 717.452,39.111 712.469,39.097 C698.663,39.097 691.135,55.11 691.052,55.289 L689.744,58.367 L689.744,56.401 L689.732,39 L659,55.735 L659.029,142.235 L689.866,142.223 L689.866,86.858 L689.987,84.791 C690.261,80.228 690.519,75.518 692.658,71.542 C697.274,62.625 707.961,62.814 715.437,63.781 L720.856,40.54" id="Fill-6"/>
            <path d="M656.042007,11.3841433 C654.854007,8.01914335 652.345007,4.78614335 649.190007,2.56414335 C642.067007,-1.73585665 631.833007,-0.502856652 626.349007,5.32714335 C622.204007,9.20414335 620.217007,15.6961433 621.285007,21.9001433 C622.127007,27.7021433 626.875007,32.3591433 630.903007,34.2251433 C637.543007,36.8831433 647.417007,36.3411433 653.440007,28.9041433 C656.852007,24.8171433 657.951007,17.4391433 656.042007,11.3681433 L656.042007,11.3841433" id="Fill-7"/>
            <path d="M763.444919,129.043505 C751.230919,128.145505 745.433919,105.564505 745.433919,105.564505 L798.517919,88.415505 C798.517919,88.415505 797.516919,65.224505 784.708919,52.637505 C772.983919,41.117505 755.197919,37.688505 738.832919,44.434505 C729.094919,48.205505 720.094919,58.333505 715.917919,70.220505 C707.756919,92.849505 712.611919,118.168505 727.997919,133.210505 C742.197919,146.805505 764.288919,146.552505 780.231919,141.774505 C780.169919,141.788505 788.265919,138.318505 788.265919,138.318505 L788.254919,123.952505 C788.254919,123.952505 778.561919,130.148505 763.444919,129.043505 L763.444919,129.043505 Z M744.706919,91.103505 C743.863919,81.366505 745.065919,70.958505 747.411919,66.181505 C749.785919,61.327505 752.472919,59.456505 755.766919,59.058505 C769.839919,57.350505 771.398919,83.167505 771.398919,83.167505 L744.706919,91.164505 C744.724919,91.180505 744.706919,91.089505 744.706919,91.103505 L744.706919,91.103505 Z" id="Fill-8"/>
            <path id="Fill-9" d="M624 55.741 624 141.991 655.304 141.978 655.241 39 624 55.741"/>
            <path d="M395.708717,52.6378988 C383.982717,41.1168988 366.196717,37.6878988 349.832717,44.4358988 C340.094717,48.2058988 331.094717,58.3328988 326.916717,70.2198988 C318.757717,92.8488988 323.611717,118.167899 338.999717,133.210899 C353.196717,146.809899 375.286717,146.553899 391.229717,141.775899 C391.169717,141.787899 399.267717,138.317899 399.267717,138.317899 L399.252717,123.953899 C399.252717,123.953899 389.562717,130.149899 374.445717,129.041899 C362.230717,128.146899 356.432717,105.565899 356.432717,105.565899 L409.515717,88.4148988 C409.515717,88.4148988 408.517717,65.2258988 395.708717,52.6378988 L395.708717,52.6378988 Z M355.706717,91.1658988 C355.722717,91.1808988 355.706717,91.0888988 355.706717,91.1068988 C354.863717,81.3698988 356.067717,70.9598988 358.411717,66.1808988 C360.785717,61.3268988 363.471717,59.4578988 366.764717,59.0598988 C380.841717,57.3518988 382.400717,83.1668988 382.400717,83.1668988 L355.706717,91.1658988 L355.706717,91.1658988 Z" id="Fill-10"/>
            <path d="M475.728989,125.6312 C467.519989,121.3622 460.653989,115.0922 459.775989,97.1012005 C458.753989,76.1472005 462.918989,61.4252005 474.108989,57.1582005 C482.598989,53.9202005 494.253989,61.0632005 494.253989,61.0632005 L494.369989,44.1282005 C494.369989,44.1282005 478.389989,36.3822005 460.451989,42.1112005 C444.255989,47.2872005 433.817989,59.9092005 430.116989,80.5502005 C427.421989,95.5872005 429.559989,112.1952 437.006989,125.2512 C445.586989,139.3852 461.848989,146.7382 480.400989,144.2192 C485.447989,143.5332 495.959989,140.2962 495.959989,140.2962 L495.813989,124.6482 C495.813989,124.6482 484.190989,130.0352 475.728989,125.6312" id="Fill-11"/>
            <path d="M617.576818,128.852179 C614.866818,128.592179 614.120818,122.847179 614.120818,122.847179 C614.120818,122.793179 608.362818,88.615179 608.362818,88.615179 C608.362818,88.654179 607.000818,81.972179 607.000818,81.972179 C605.598818,74.862179 604.141818,67.497179 601.433818,60.728179 C592.582818,40.210179 567.185818,36.837179 548.481818,42.377179 C545.482818,43.288179 542.638818,44.827179 542.638818,44.827179 L542.638818,57.544179 C550.331818,54.207179 557.835818,54.004179 563.905818,56.889179 C571.804818,60.715179 574.032818,70.447179 574.440818,74.478179 C574.440818,74.546179 575.134818,78.984179 575.134818,78.984179 C566.009818,80.357179 554.674818,82.610179 546.315818,88.507179 C536.974818,95.164179 532.058818,105.773179 533.149818,116.855179 C533.488818,128.646179 542.612818,138.081179 551.421818,141.350179 C563.131818,145.490179 579.199818,144.821179 588.759818,133.818179 C588.812818,133.764179 589.929818,132.520179 589.929818,132.520179 L592.636818,135.152179 C599.607818,142.465179 607.245818,142.235179 616.096818,141.975179 L620.793818,141.879179 L620.790818,129.333179 C620.790818,129.333179 617.658818,128.886179 617.576818,128.852179 L617.576818,128.852179 Z M577.443818,94.071179 L583.160818,121.791179 C568.434818,138.772179 544.176818,108.971179 577.443818,94.071179 L577.443818,94.071179 Z" id="Fill-12"/>
            <path id="Fill-13" d="M499 141.802 529.769 141.802 529.769 8 499 24.474 499 141.802"/>
        </g>
    </g>
</svg>